<svg id="Layer_1" data-name="Layer 1" xmlns="http://www.w3.org/2000/svg" viewBox="0 0 1452 653"><defs><style>.cls-1{fill:#cccccb;}</style></defs><path class="cls-1" d="M483.74,583.58V545.81l-35.63-20.57v40.43l-33.18,19.16V545.1l-35,20.22-33.79-19.51V508.75a2.4,2.4,0,0,0,1.79-2.32,2.17,2.17,0,0,0-.1-.62l32.41-18.71.3-.18V445.79l-35,20.21L311.1,446.14,276.7,466l-33.8-19.51v-39l35-20.22L242.9,367V326.6L207.58,347l-.31.17v39L175.79,368a2.66,2.66,0,0,0,.09-.63,2.39,2.39,0,0,0-1.79-2.31V288.29l34.1-19.69.3-.18V227.28l-35.32,20.4-.3.17v39.73l-33.8,19.51-33.18-19.15,33.49-19.34.3-.18V227.28l-35.32,20.4-.3.17V326.6L72.57,308.43a2.59,2.59,0,0,0,.09-.63,2.39,2.39,0,0,0-1.79-2.31V267.72L37.08,248.21l33.18-19.16.61.35v-.7l.61-.36-.61-.35V188.26L38.16,169.38a2.19,2.19,0,0,0,.1-.63,2.41,2.41,0,1,0-3,2.31v37.07l-35,20.21,34.4,19.87L1.14,267.54l-.3.18v39.73l-.61.35.61.35v39.73l33.78,19.51L1.12,386.73l-.31.17V428l35.32-20.39.31-.18v-39h0V328l32.09-18.53a2.33,2.33,0,0,0,1.09.62v37.77l33.79,19.51L70,386.72l-.3.18v39.74L37.59,445.16a2.4,2.4,0,1,0-2.32,4V525.9L1.12,545.62l-.31.18v41.14l.06,0V626l34.4,19.86v.71l.61-.35.61.35v-.71l34.1-19.68.31-.18V584.82L37.59,604.05a2.4,2.4,0,0,0-3.41,0L2.67,585.86,35.27,567v0l35-20.21,35,20.21V526.63L139.38,507l.3-.17V469a2.4,2.4,0,1,0-3-2.31,2.12,2.12,0,0,0,.1.62L104.36,486l-.3.18v39L70.9,506.08V427.32l33.77-19.5,35,20.22V387.61l32.09-18.53a2.41,2.41,0,0,0,1.1.62v37.77l32.71,18.89a2.12,2.12,0,0,0-.1.62,2.19,2.19,0,0,0,.1.63l-32.41,18.71-.3.17V525.9L141,544.32a2.39,2.39,0,1,0-2.56,3.7v38.92l34.4-19.87v39l35.63,20.57V585.53L174.68,566l33.2-19.16L240,565.4a2.51,2.51,0,0,0-.09.62,2.4,2.4,0,1,0,3-2.31V486.92l33.8-19.51,33.18,19.16-33.49,19.34-.31.17v39.73l-.61.35.61.36v39L242,605.23l-.3.17v41.14L277,626.15l.31-.18V587l33.18,19.16v.71l.61-.36,35,20.22V588.2a2.33,2.33,0,0,0,1.09-.62l32.09,18.53v40.42l34.41-19.86h0L449,606.28l.31-.17v-39l31.48,18.17a2.66,2.66,0,0,0-.09.63,2.4,2.4,0,1,0,3-2.31Zm-378.46-335,33.18-19.16v38.32l-33.18,19.15ZM35.22,406.77,2,425.92V387.61l33.19-19.16ZM69.68,586.94v38.31L36.49,644.41V608.05a2.38,2.38,0,0,0,1.79-2.31,2.51,2.51,0,0,0-.09-.62ZM35.27,608.05v36.36L2.09,625.25V586.94l31.48,18.18a2.58,2.58,0,0,0-.09.62A2.38,2.38,0,0,0,35.27,608.05Zm378.44-22.52-33.19,19.16V566.38l33.19-19.16Zm-68.82-1.95a2.43,2.43,0,0,0-1.09.62L312.32,566l32.57-18.81ZM311.71,526V487.63l31.49,18.18a2.16,2.16,0,0,0-.09.62,2.41,2.41,0,0,0,1.78,2.32V545.1Zm33.18-21.83a2.53,2.53,0,0,0-1.09.62l-31.48-18.17,32.57-18.8ZM311.1,527l33.18,19.16-15.07,8.71L311.1,565.32l-33.18-19.16,15.07-8.7Zm.61,40.09,31.49,18.18a2.11,2.11,0,0,0-.09.62,2.18,2.18,0,0,0,.09.63L311.71,604.7Zm67.59-80.87-32.09,18.52a2.47,2.47,0,0,0-1.09-.62V467.06L379.3,447.9ZM208.49,424.67V388.31l33.19,19.16v38.32l-31.49-18.18a2.18,2.18,0,0,0,.09-.63A2.39,2.39,0,0,0,208.49,424.67Zm0,4.62a2.41,2.41,0,0,0,1.1-.62l31.47,18.17-32.57,18.81Zm33.8-22.88-33.18-19.16,16.27-9.39,16.91-9.77,33.18,19.16Zm-33.8-58.53,33.19-19.16V367l-33.19,19.16Zm-34.4-99.32,33.18-19.16v38.32l-33.18,19.15Zm-1.22,78.75L162,333.58l-22.33,12.89V308.15L172.87,289Zm-34.41,58.88-16.59-9.58L105.28,367V328.72l16.59,9.58,16.59,9.58ZM105.28,289l33.18,19.15v38.32l-16.59-9.58-16.59-9.58ZM69.65,305.49a2.33,2.33,0,0,0-1.09.62L36.47,287.58V249.27l33.18,19.16Zm0-116.52v38.32L36.47,208.13V171.06a2.38,2.38,0,0,0,1.09-.62Zm-33.8,20.22L69,228.34,36.47,247.15h0l-.62.35-.61-.35h0L2.67,228.34ZM2.06,268.43l33.18-19.16v38.31L2.06,306.74Zm0,40.43L35.24,328v38.31L2.06,347.18ZM35.86,327,2.67,307.8l15.08-8.7,18.1-10.46L68,307.17a2.66,2.66,0,0,0-.09.63,2.59,2.59,0,0,0,.09.63Zm35-16.85a2.33,2.33,0,0,0,1.09-.62L104.06,328v38.31L70.87,347.17Zm0,77.5,33.19-19.16v38.31L70.87,425.92ZM36.49,449.16a2.39,2.39,0,0,0,1.79-2.32,2.58,2.58,0,0,0-.09-.62L69.68,428v38.31L36.49,485.51Zm33.19,56.92L36.49,525.24V486.92l33.19-19.15ZM35.22,565.66,2,584.82V546.5l33.19-19.16Zm1.27-39,33.19-19.16v38.32L36.49,565Zm68.79-39.73,32.09-18.52a2.33,2.33,0,0,0,1.09.62v37.06l-33.18,19.16Zm-1.2,40.42V565L70.9,545.81V507.49l33.16,19.14v.73Zm34.38-101.42-33.18-19.16V368.45L121.87,378l16.59,9.58Zm1.22-39.73V347.88l19-10.95,14.22-8.21v36.36a2.39,2.39,0,0,0-1.79,2.31,2.66,2.66,0,0,0,.09.63Zm34.41,20.57V369.7a2.33,2.33,0,0,0,1.09-.62l32.09,18.53v37.06a2.38,2.38,0,0,0-1.09.62Zm0,40.44,32.09-18.53a2.38,2.38,0,0,0,1.09.62v37.06l-.61.36h0l-32.57,18.8Zm0,79.45,33.18-19.16v38.32L174.09,565Zm33.18-20.57-33.18,19.16V486.92l33.18-19.15Zm-67.64,78.74V548a2.39,2.39,0,0,0,1.79-2.31c0-.08,0-.15,0-.23l31.41-18.14v38.32Zm67.59,39.73L174,605.39V567.07l33.18,19.16Zm34.46-60.84a2.33,2.33,0,0,0-1.09.62l-32.1-18.52V507.49l33.19,19.16Zm-33.19-57.63V467.77l33.19,19.15v38.32Zm33.8-20.22-33.18-19.15,33.18-19.16.61.35h0l32.57,18.81Zm68.81-38.31,33.18,19.16-32.57,18.8h0l-.61.35-.61-.35h0l-32.57-18.8Zm-33.79,59.24,33.18-19.16V526L277.31,545.1Zm-1.23,118.47L242.9,644.42V606.11L276.08,587Zm1.23-39.72V547.22l33.18,19.16V604.7Zm35,20.22,31.48-18.18a2.43,2.43,0,0,0,1.09.62v36.36Zm33.8-22.18V547.22l33.18,19.16v38.31l-31.48-18.18a2.51,2.51,0,0,0,.09-.62A2.39,2.39,0,0,0,346.12,583.58Zm34.4,60.83v-38.3L413.71,587v38.3Zm67.59-39-33.18,19.16V586.24l33.18-19.16Zm1.23-39.73V527.36l33.18,19.16v37.06a2.33,2.33,0,0,0-1.09.62Zm1002.43-144L1417.61,402l33.25-19.2.31-.18V343.16l.6-.35-.6-.36V303l-33.54-19.37,33.26-19.2.3-.18V223.41l-35.07,20.25-.3.18V282.6l0,0v40.15l-31.86,18.4a2.38,2.38,0,0,0-1.09-.62V263.57l-34.16-19.73V204.4l-32.48-18.75a2.22,2.22,0,0,0,0-1.25l32.18-18.58.3-.17V126.92l32.92,19v79.59l33.08-19.1a2.36,2.36,0,0,0,1.69.71,2.38,2.38,0,0,0,.61-4.68v-76.2l33.91-19.58.3-.18V65.64L1417,85.4v0l-34.77,20.07-34.77-20.07v40.16l-33.83,19.53-.31.17v37.51a2.37,2.37,0,0,0,0,4.59v37.5l34.16,19.73v38.74l-32.94,19V263.56l-34.17-19.72v-.7l-.6.35-.61-.35v.7l-33.86,19.55-.3.17v40.85l33.07-19.1a2.38,2.38,0,0,0,3.39,0l31.86,18.4v79.6l34.77-20.08,33.56,19.37h0L1415.18,402l-33,19-.6-.35v.7l-.61.35.61.35V461.5l34.16,19.72V518a2.38,2.38,0,1,0,3,2.3,2.51,2.51,0,0,0-.09-.62l32.17-18.58.31-.17V460.1L1417,479.82V441.77ZM1417,244.54l33-19v38l-33,19ZM1450,381.9l-33,19v-38l33-19Zm0-40.15-33-19v-38l33,19Zm-33.55-18,32.94,19-15,8.64-18,10.38-31.87-18.4a2.22,2.22,0,0,0,0-1.25Zm-34.77-20.07v36.8a2.38,2.38,0,0,0-1.09.62l-15.39-8.89-16.47-9.51v-38l16.47,9.51Zm1.18-157.78,33-19v38l-33,19Zm0,77.48v-38l33-19v36.1a2.37,2.37,0,0,0-1.77,2.29,2.59,2.59,0,0,0,.09.63ZM1417,86.77l33-19v38.05l-33,19Zm-1.27,38.73-33,19v-38l33-19Zm-67.11-38,32.95,19v38l-32.92-19v-.72l0,0Zm-1.19,39.45v38l-31.86,18.39a2.42,2.42,0,0,0-1.08-.61v-36.8Zm-32.94,97.21v-36.8a2.4,2.4,0,0,0,1.08-.62l31.86,18.4v38Zm67.11,40.15v38l-16.48-9.51-16.47-9.51v-38Zm-135.44,38V264.26l33-19v36.1a2.38,2.38,0,0,0-1.78,2.3,2.17,2.17,0,0,0,.1.62Zm34.16-21v-36.1l33,19v38.05L1282,284.26a2.58,2.58,0,0,0,.09-.62A2.38,2.38,0,0,0,1280.35,281.34Zm34.17,22.37,32.94-19v38l-32.94,19Zm0,39.45,32.94-19v38l-32.94,19Zm34.16,19v-38l16.47,9.51,14.79,8.54a2.44,2.44,0,0,0-.09.62,2.38,2.38,0,0,0,1.78,2.29v36.1Zm34.16-17.08a2.38,2.38,0,0,0,1.09-.62l31.86,18.4v38l-33-19Zm33,57.93h0l.61-.35.6.35h0l32.35,18.67-32.95,19-33-19Zm-33,19.72,33,19v38.05l-33-19ZM1450,462.2v38l-31.86,18.4A2.38,2.38,0,0,0,1417,518v-36.8ZM1248,224.47a2.44,2.44,0,0,0-.09-.62l32.17-18.58.3-.17V126.25L1312,108a2.38,2.38,0,1,0,2.54-3.68V65.64l-34.16,19.72V46.62L1245,26.19V67l33.52,19.36-33,19L1213.71,87a2.12,2.12,0,0,0,.1-.62,2.39,2.39,0,1,0-3,2.29v36.1h0V165l-33.55,19.37-33-19,33.25-19.2.31-.17V106.48l.6-.35-.6-.35V67l33.86-19.55.3-.17V6.46L1177,26.71l-.31.17V65.63l-33-19v-.7l-.6.35-34.77-20.08v38.2a2.47,2.47,0,0,0-1.09.62l-31.86-18.39V6.47L1041.22,26.2h0l-35.08,20.25-.3.17V85.35l-33-19v-.7l-.6.35-.61-.35v.7L938.12,85.7,903.35,65.63v40.15l-33,19V86.05L835,65.63h0L800.87,45.9V86.05L769,104.45a2.36,2.36,0,0,0-1.69-.71,2.39,2.39,0,0,0,0,4.77,2.36,2.36,0,0,0,1.69-.71l31.87,18.4v40.15l35.07-20.25.3-.18V107.18l33,19v40.15l33.08-19.1a2.34,2.34,0,0,0,1.08.62v37.5l35.38,20.42V166.35l34.16,19.72V145.22l-33.55-19.37,32.94-19,34.77,20.07V86.76l33-19v77.5l-33.86,19.55-.3.17V205.8l33.08-19.1a2.38,2.38,0,1,0,2.3-4v-36.8l33.86-19.55.3-.18V87.46l32.95,19v36.8a2.38,2.38,0,0,0-1.78,2.3,2.58,2.58,0,0,0,.09.62l-32.17,18.57-.31.18V205.8l34.77-20.08,34.17,19.73,34.16-19.73,34.16,19.73L1245,186.07v36.1a2.38,2.38,0,1,0,3,2.3Zm31.17-20.08-31.86,18.4a2.38,2.38,0,0,0-1.09-.62v-36.8l.61-.35h0l32.34-18.67ZM1212,126.9l33,19v38l-33-19Zm34.16,19,33-19v38l-33,19Zm33-20.43-33,19v-38l33-19Zm34.22-57.76v36.54a2.38,2.38,0,0,0-1.78,2.3c0,.08,0,.15,0,.22l-31.19,18v-38ZM1246.25,28.3l32.94,19v38l-32.94-19ZM1212,88.7a2.36,2.36,0,0,0,1.08-.61L1245,106.48v38l-33-19Zm-68.93,36.45-32.95-19,15-8.64,18-10.38,32.94,19-15,8.64ZM1109.54,69a2.47,2.47,0,0,0,1.09-.62l31.25,18-32.34,18.68Zm33,16.37-31.26-18a2.18,2.18,0,0,0,0-1.24L1142.49,48Zm0,40.85v38.05l-31.26-18.05a2.58,2.58,0,0,0,.09-.62,2.38,2.38,0,0,0-1.78-2.3v-36.1Zm-33,21.67a2.38,2.38,0,0,0,1.09-.62l31.25,18.05L1109.54,184Zm67.11-2.65-33,19v-38l33-19Zm1.22-117.63,32.94-19V46.61l-32.94,19ZM1176.65,67v38.05l-33-19V48ZM1141.88,47l-31.25,18a2.47,2.47,0,0,0-1.09-.62V28.28ZM1074.16,8.57v38l-32.94,19v-38ZM971.68,67.73v38.05l-32.95,19v-38Zm-67.11,0,32.95,19v38L921,115.29l-16.47-9.51Zm32.95,96.51L921,154.73l-14.79-8.54a2.51,2.51,0,0,0,.09-.62,2.37,2.37,0,0,0-1.77-2.29v-36.1L921,116.69l16.48,9.51ZM869.19,124.8l-33-19v-38l33,19ZM802.08,48,835,67v38l-32.95-19ZM769.6,105.5l31.87-18.4,32.95,19-15,8.64-18,10.38-31.87-18.4a2.22,2.22,0,0,0,0-1.25ZM835,145.22l-32.95,19v-38l32.95-19Zm35.37,19v-38l33-19v36.1a2.37,2.37,0,0,0-1.77,2.29,2.11,2.11,0,0,0,.09.62Zm67.12,39.45-32.95-19v-36.8a2.34,2.34,0,0,0,1.08-.62L921,156.13l16.48,9.51ZM971.68,184l-32.95-19v-38l32.95,19Zm34.16-59.17-33-19v-38l33,19Zm1.21-39.45v-38l33-19v38ZM1074.16,48v38l-32.94,19V67ZM1007.05,203.7v-38l33-19v36.1a2.37,2.37,0,0,0-1.77,2.3,2.16,2.16,0,0,0,.09.62Zm67.11-78.2-32.94,19v-38l32.94-19ZM1075.38,48l31.26,18.05a2.51,2.51,0,0,0-.09.62,2.38,2.38,0,0,0,1.78,2.3v36.1l-32.95-19Zm0,117.64,31.86-18.4a2.38,2.38,0,0,0,1.09.62v36.8l-32.95,19Zm67.72,38.4-32.95-19,32.34-18.67h0l.61-.35.6.35h0L1176.05,185Zm35.37-19,33-19,32.95,19-32.95,19Z"/></svg>